<?xml version="1.0" encoding="utf-8"?>
<!-- Generator: Adobe Illustrator 23.0.0, SVG Export Plug-In . SVG Version: 6.00 Build 0)  -->
<svg version="1.1" id="OBJECTS" xmlns="http://www.w3.org/2000/svg" xmlns:xlink="http://www.w3.org/1999/xlink" x="0px" y="0px"
	 viewBox="0 0 403.8 309" style="enable-background:new 0 0 403.8 309;" xml:space="preserve">
<style type="text/css">
	.st0{fill:#489AFF;}
	.st1{fill:#E3EAFF;}
	.st2{fill:#6DB8FF;}
	.st3{fill:#2F6DFF;}
	.st4{fill:#C8D6F2;}
	.st5{opacity:0.2;fill:#424261;}
	.st6{opacity:0.21;fill:#DAE1F2;}
	.st7{fill:#F4F4F4;}
	.st8{fill:#9570EE;}
	.st9{fill:#F9FBFC;}
	.st10{fill:#BB87EE;}
	.st11{fill:#7F57EE;}
	.st12{fill:#CED6FF;}
	.st13{fill:#F7D3A9;}
	.st14{fill:#544DB8;}
	.st15{fill:#FF8B40;}
	.st16{fill:#CDD4FF;}
	.st17{fill:#FFC240;}
	.st18{fill:#90C240;}
	.st19{fill:#EB4F24;}
	.st20{fill:#FFFFFF;}
	.st21{fill:#FD4940;}
	.st22{fill:#00CCFF;}
	.st23{fill:#FF56A9;}
	.st24{fill:#FFC359;}
	.st25{fill:#FF4DD1;}
	.st26{fill:#F79A74;}
	.st27{fill:#FF4F72;}
	.st28{fill:#FEC800;}
</style>
<g>
	<path class="st0" d="M329.7,245c15.6-9.5,20.5-29.9,11-45.4c-2.1-3.5-4.8-6.4-7.8-8.8c3.9-5.6,8.5-11,13.6-16.1
		c2.4-2.4,4.8-4.6,7.2-6.8c1,0.8,1.9,1.7,2.9,2.6l8.1-5c4.2-2.5,9.6-1.2,12.1,2.9l8,13.2c2.5,4.2,1.2,9.6-2.9,12.1l-8.1,5
		c1.8,6.2,2.7,12.5,2.6,18.8l9.2,2.6c4.7,1.3,7.4,6.2,6.1,10.9l-4.1,14.9c-1.3,4.7-6.2,7.4-10.9,6.1l-9.2-2.6
		c-2.4,4.1-5.3,8-8.7,11.5l5,8.1c2.5,4.2,1.2,9.6-2.9,12.1l-13.2,8c-4.2,2.5-9.6,1.2-12.1-2.9l-5-8.1c-4.8,1.4-9.6,2.2-14.4,2.5
		c-2.8-9.9-4-20.3-3.6-30.8C318.4,249.8,324.4,248.3,329.7,245z"/>
	<g>
		<g>
			<path class="st1" d="M313.8,283.4H15.9c-3.8,0-6.9-3.1-6.9-6.9V68.9c0-3.8,3.1-6.9,6.9-6.9h297.8c3.8,0,6.9,3.1,6.9,6.9v207.6
				C320.7,280.3,317.6,283.4,313.8,283.4z"/>
			<path class="st2" d="M311.1,280.5H18.6c-3,0-5.5-2.5-5.5-5.5V70.3c0-3,2.5-5.5,5.5-5.5h292.5c3,0,5.5,2.5,5.5,5.5V275
				C316.6,278,314.1,280.5,311.1,280.5z"/>
			<path class="st3" d="M300.1,261.4H29.6c-1.9,0-3.4-1.5-3.4-3.4V78.4c0-1.9,1.5-3.4,3.4-3.4h270.4c1.9,0,3.4,1.5,3.4,3.4V258
				C303.5,259.9,301.9,261.4,300.1,261.4z"/>
			<path class="st1" d="M1.5,271.9c-0.9,1.7-1.5,3.5-1.5,5.5c0,6.5,5.2,11.7,11.7,11.7H318c6.5,0,11.7-5.2,11.7-11.7
				c0-2-0.6-3.9-1.5-5.5H1.5z"/>
		</g>
		<path class="st4" d="M1.5,283c2,3.6,5.8,6.2,10.2,6.2H318c4.4,0,8.3-2.5,10.2-6.2H1.5z"/>
	</g>
	<path class="st5" d="M306.7,61.9h-208v139c0,3.1,2.5,5.6,5.6,5.6h216.3V75.9C320.7,68.2,314.4,61.9,306.7,61.9z"/>
	<path class="st6" d="M347.1,200.2H109.2c-1.5,0-2.8-1.2-2.8-2.8V48.6c0-1.5,1.2-2.8,2.8-2.8h237.9c1.5,0,2.8,1.2,2.8,2.8v148.9
		C349.9,199,348.6,200.2,347.1,200.2z"/>
	<path class="st7" d="M356.8,189.8H118.9c-1.5,0-2.8-1.2-2.8-2.8V38.1c0-1.5,1.2-2.8,2.8-2.8h237.9c1.5,0,2.8,1.2,2.8,2.8V187
		C359.6,188.5,358.4,189.8,356.8,189.8z"/>
	<path class="st5" d="M73,140.7H44.8c-1,0-1.7-0.8-1.7-1.7v-29.6c0-1,0.8-1.7,1.7-1.7H73c1,0,1.7,0.8,1.7,1.7V139
		C74.7,140,73.9,140.7,73,140.7z"/>
	<path class="st2" d="M71.1,188.7H42.9c-1,0-1.7-0.8-1.7-1.7v-29.6c0-1,0.8-1.7,1.7-1.7h28.2c1,0,1.7,0.8,1.7,1.7V187
		C72.9,188,72.1,188.7,71.1,188.7z"/>
	<path class="st2" d="M71.1,235.7H42.9c-1,0-1.7-0.8-1.7-1.7v-29.6c0-1,0.8-1.7,1.7-1.7h28.2c1,0,1.7,0.8,1.7,1.7V234
		C72.9,234.9,72.1,235.7,71.1,235.7z"/>
	<g>
		<path class="st8" d="M64,215.5c0-4.2-3.4-7.5-7.5-7.5c-4.2,0-7.5,3.4-7.5,7.5c0,0-1.1,8,7.5,14.3C65,223.5,64,215.5,64,215.5z"/>
		<path class="st9" d="M56.9,221c-3.4,0.3-6.1-2.5-5.9-5.9c0.2-2.6,2.3-4.8,5-5c3.4-0.3,6.1,2.5,5.9,5.9
			C61.7,218.6,59.5,220.7,56.9,221z"/>
	</g>
	<g>
		<g>
			<g>
				<path class="st8" d="M66.7,171.8c0,5.7-4.7,10.4-10.4,10.4s-10.4-4.7-10.4-10.4s4.7-10.4,10.4-10.4S66.7,166,66.7,171.8z"/>
				<path class="st9" d="M64.7,171.8c0,4.6-3.8,8.4-8.4,8.4c-4.6,0-8.4-3.8-8.4-8.4c0-4.6,3.8-8.4,8.4-8.4
					C60.9,163.4,64.7,167.1,64.7,171.8z"/>
				<path class="st10" d="M56.3,163.4c3.8,0,7,2.5,8,6c0,0.1,0.2,0.2,0.3,0.2l0,0c0.2,0,0.4-0.2,0.3-0.4c-1.1-3.8-4.6-6.5-8.7-6.5
					c-4.1,0-7.6,2.7-8.7,6.5c-0.1,0.2,0.1,0.4,0.3,0.4l0,0c0.1,0,0.3-0.1,0.3-0.2C49.3,165.9,52.5,163.4,56.3,163.4z"/>
				<path class="st11" d="M65.6,172c-0.5,0-0.9,0.4-1,0.9c-0.6,4.1-4.1,7.3-8.3,7.3c-4.3,0-7.8-3.2-8.3-7.3c-0.1-0.5-0.5-0.9-1-0.9
					l0,0c-0.6,0-1.1,0.5-1,1.1c0.7,5.1,5,9,10.3,9c5.3,0,9.6-3.9,10.3-9C66.7,172.6,66.2,172,65.6,172L65.6,172z"/>
				<path class="st9" d="M64.7,171.8c0,4.6-3.8,8.4-8.4,8.4c-4.6,0-8.4-3.8-8.4-8.4c0-4.6,3.8-8.4,8.4-8.4
					C60.9,163.4,64.7,167.1,64.7,171.8z"/>
				<path class="st8" d="M64.5,174.5c-0.1,0-0.3,0.1-0.3,0.2c-1.2,3.2-4.3,5.5-7.9,5.5c-3.6,0-6.7-2.3-7.9-5.5
					c0-0.1-0.2-0.2-0.3-0.2l0,0c-0.2,0-0.4,0.2-0.3,0.5c1.3,3.4,4.6,5.9,8.5,5.9c3.9,0,7.2-2.5,8.5-5.9
					C64.9,174.7,64.7,174.5,64.5,174.5L64.5,174.5z"/>
			</g>
			<path class="st8" d="M56.3,172.5L56.3,172.5c-0.2,0-0.4-0.2-0.4-0.4v-5.9c0-0.2,0.2-0.4,0.4-0.4l0,0c0.2,0,0.4,0.2,0.4,0.4v5.9
				C56.7,172.3,56.5,172.5,56.3,172.5z"/>
			<path class="st8" d="M56,171.9L56,171.9c0.1-0.2,0.4-0.2,0.6,0l3.6,3.1c0.2,0.1,0.2,0.4,0,0.6l0,0c-0.1,0.2-0.4,0.2-0.6,0
				l-3.6-3.1C55.8,172.3,55.8,172.1,56,171.9z"/>
		</g>
		<g>
			<rect x="56" y="164" class="st12" width="0.3" height="0.8"/>
			<rect x="56" y="178.7" class="st12" width="0.3" height="0.8"/>
		</g>
		<g>
			
				<rect x="48.7" y="171.3" transform="matrix(6.123234e-17 -1 1 6.123234e-17 -122.8634 220.5511)" class="st12" width="0.3" height="0.8"/>
			
				<rect x="63.4" y="171.3" transform="matrix(6.123234e-17 -1 1 6.123234e-17 -108.1582 235.2563)" class="st12" width="0.3" height="0.8"/>
		</g>
		<g>
			
				<rect x="50.8" y="166.1" transform="matrix(0.7074 -0.7068 0.7068 0.7074 -102.7678 84.7649)" class="st12" width="0.3" height="0.8"/>
			
				<rect x="61.2" y="176.5" transform="matrix(0.7071 -0.7071 0.7071 0.7071 -107.1094 95.2279)" class="st12" width="0.3" height="0.8"/>
		</g>
		<g>
			
				<rect x="50.8" y="176.5" transform="matrix(-0.7071 -0.7071 0.7071 -0.7071 -38.0416 338.0544)" class="st12" width="0.3" height="0.8"/>
			
				<rect x="61.2" y="166.1" transform="matrix(-0.7074 -0.7068 0.7068 -0.7074 -12.8544 327.6955)" class="st12" width="0.3" height="0.8"/>
		</g>
	</g>
	<g>
		<path class="st2" d="M71.1,139.7H42.9c-1,0-1.7-0.8-1.7-1.7v-29.6c0-1,0.8-1.7,1.7-1.7h28.2c1,0,1.7,0.8,1.7,1.7V138
			C72.9,138.9,72.1,139.7,71.1,139.7z"/>
		<g>
			<polyline class="st13" points="39.7,136.3 42.3,134.5 43.5,130.2 42.2,129.9 41.4,131.5 42.2,124 40.9,124.3 39.6,131.5 
				38,134.9 39.4,135.8 			"/>
			<polygon class="st13" points="55.1,144 55.5,140.9 59.3,137.1 60.2,138.3 58.8,139.9 66.1,138.1 66.1,139.7 59.3,142.3 
				57.9,144.7 			"/>
			<g>
				<g>
					<polygon class="st14" points="7.5,221.4 21.7,291 32.5,289.9 25.2,287.2 27.9,286.4 24,221.4 					"/>
					<path class="st14" d="M30.2,220.3c0,0,18.1,16.9,15.4,37.3c-3.1,16.1-9.6,22.3-9.6,22.3l-1.9-0.4l3,7.9l-8.7-9.2
						c0,0,10.7-14.7,4-30s-21-20.8-21-20.8s12.4-11.2,13.3-11C25.5,216.7,30.2,220.3,30.2,220.3z"/>
					<g>
						<path class="st15" d="M37.9,133.7c0,0-29.7,36-33.2,43.3c0,0-1.4,2.6-1.4,10.1c0,7.5,2.6,35.2,2.6,35.2l30.3,1.7
							c0,0-9.8-33.7-10.1-34.6c-0.3-0.9-5.2-6.1-9.8-7.2l25.4-45.8L37.9,133.7z"/>
						<g>
							<path class="st13" d="M19.1,178.6c0,0,1.3,3.7,2,6c0,0-6.2-0.1-8.4-3l2.3-5.5L19.1,178.6z"/>
							<g>
								<path class="st13" d="M23.8,166.9c0,0,1.8,10.6,0,13.1c-1.8,2.4-8.1-1.7-10.7-5.6c-2.6-3.9-3.1-12.6,1.3-13.3
									C18.8,160.4,22.7,163.1,23.8,166.9z"/>
							</g>
						</g>
						<path class="st15" d="M21,186.6c0,0,23.8-15,25.7-18.1c1.9-3.1,7.3-25.9,7.3-25.9l4.6,1.2c0,0-2.7,25.5-3.5,28.2
							c-0.8,2.7-24.2,27.7-29.6,27.7C20.2,199.7,18.3,192.8,21,186.6z"/>
					</g>
				</g>
				<path class="st14" d="M11,161.6c0,0,3.1-4.3,8.7-3.3c5.6,1,7-0.2,7-0.2s-1.2,6.1-5,7.5c-3.8,1.4-4.9,1-4.9,1s2.1,2.1,2.6,3.7
					c0.5,1.6-1.7-1.9-2.6-0.7c-0.9,1.2,0,3.8,1.7,3.7c1.7-0.2,0.7,1.2,0,2.6c-0.7,1.4-1.7,3.1-2.8,2.6c-1-0.5-4.7-2.6-6.1-7
					C8.2,167.2,7.8,163,11,161.6z"/>
			</g>
		</g>
	</g>
	<g>
		<path class="st1" d="M202.9,174.6h-70.4c-0.7,0-1.3-0.6-1.3-1.3V52.8c0-0.7,0.6-1.3,1.3-1.3h70.4c0.7,0,1.3,0.6,1.3,1.3v120.5
			C204.2,174.1,203.6,174.6,202.9,174.6z"/>
		<path class="st2" d="M189.9,71.9h-45.2c-0.6,0-1-0.5-1-1v-8.4c0-0.6,0.5-1,1-1h45.2c0.6,0,1,0.5,1,1v8.4
			C190.9,71.4,190.5,71.9,189.9,71.9z"/>
		<path class="st2" d="M159.5,129.9h-9.4c-2.2,0-4-1.8-4-4l0,0c0-2.2,1.8-4,4-4h9.4c2.2,0,4,1.8,4,4l0,0
			C163.5,128.1,161.7,129.9,159.5,129.9z"/>
		<path class="st8" d="M186.6,129.9h-9.4c-2.2,0-4-1.8-4-4l0,0c0-2.2,1.8-4,4-4h9.4c2.2,0,4,1.8,4,4l0,0
			C190.6,128.1,188.8,129.9,186.6,129.9z"/>
		<rect x="142.6" y="82.3" class="st9" width="50.8" height="8"/>
		<rect x="142.6" y="95.9" class="st9" width="50.8" height="8"/>
		<rect x="153.5" y="108.9" class="st16" width="29.2" height="1.8"/>
	</g>
	<g>
		<path class="st1" d="M275.6,65.6h-56.9c-4.6,0-8.3-3.7-8.3-8.3l0,0c0-4.6,3.7-8.3,8.3-8.3h56.9c4.6,0,8.3,3.7,8.3,8.3l0,0
			C284,61.9,280.2,65.6,275.6,65.6z"/>
		<path class="st17" d="M232.3,57.3c0,1.4-1.2,2.6-2.6,2.6s-2.6-1.2-2.6-2.6c0-1.4,1.2-2.6,2.6-2.6S232.3,55.8,232.3,57.3z"/>
		<path class="st18" d="M250.2,57.3c0,1.4-1.2,2.6-2.6,2.6c-1.4,0-2.6-1.2-2.6-2.6c0-1.4,1.2-2.6,2.6-2.6
			C249.1,54.7,250.2,55.8,250.2,57.3z"/>
		<path class="st19" d="M266.8,57.3c0,1.4-1.2,2.6-2.6,2.6c-1.4,0-2.6-1.2-2.6-2.6c0-1.4,1.2-2.6,2.6-2.6
			C265.6,54.7,266.8,55.8,266.8,57.3z"/>
	</g>
	<g>
		<circle class="st20" cx="56.7" cy="125.2" r="6.4"/>
		<g>
			<path class="st8" d="M63.3,117.5h-1.1l-1.6-2.3c-0.1-0.2-0.3-0.3-0.6-0.3h-6.4c-0.2,0-0.4,0.1-0.6,0.3l-1.6,2.3h-1.1
				c-1.7,0-3.2,1.4-3.2,3.2v9.2c0,1.7,1.4,3.2,3.2,3.2h13c1.7,0,3.2-1.4,3.2-3.2v-9.2C66.4,119,65,117.5,63.3,117.5z M56.8,129.9
				c-2.6,0-4.7-2.1-4.7-4.7c0-2.6,2.1-4.7,4.7-4.7c2.6,0,4.7,2.1,4.7,4.7C61.4,127.8,59.3,129.9,56.8,129.9z"/>
			<circle class="st2" cx="56.8" cy="125.2" r="3.1"/>
		</g>
	</g>
	<g>
		<path class="st1" d="M286,119.5h-51.9c-1.1,0-2-0.9-2-2V84.7c0-1.1,0.9-2,2-2H286c1.1,0,2,0.9,2,2v32.7
			C288,118.5,287.1,119.5,286,119.5z"/>
		<path class="st21" d="M260.1,100.8H260c-0.2,0-0.5-0.1-0.7-0.2l-21.6-12c-0.7-0.4-1-1.3-0.6-2c0.4-0.7,1.3-1,2-0.6L260,97.7
			l20.9-11.6c0.7-0.4,1.6-0.1,2,0.6c0.4,0.7,0.1,1.6-0.6,2l-21.6,12C260.6,100.7,260.3,100.8,260.1,100.8z"/>
	</g>
	<path class="st14" d="M368.2,115.7h-65.8c-1,0-1.8-0.8-1.8-1.8V27.8c0-1,0.8-1.8,1.8-1.8h65.8c1,0,1.8,0.8,1.8,1.8v86.1
		C370,114.9,369.2,115.7,368.2,115.7z"/>
	<g>
		<path class="st22" d="M316.2,38h-4.6c-0.2,0-0.4-0.4-0.4-0.9l0,0c0-0.5,0.2-0.9,0.4-0.9h4.6c0.2,0,0.4,0.4,0.4,0.9l0,0
			C316.6,37.6,316.4,38,316.2,38z"/>
		<path class="st22" d="M344.8,38h-26.4c-0.2,0-0.4-0.4-0.4-0.9l0,0c0-0.5,0.2-0.9,0.4-0.9h26.4c0.2,0,0.4,0.4,0.4,0.9l0,0
			C345.2,37.6,345,38,344.8,38z"/>
		<path class="st23" d="M326.8,41.7h-8.4c-0.2,0-0.4-0.4-0.4-0.9l0,0c0-0.5,0.2-0.9,0.4-0.9h8.4c0.2,0,0.4,0.4,0.4,0.9l0,0
			C327.2,41.3,327,41.7,326.8,41.7z"/>
		<path class="st1" d="M340.7,41.7h-12.2c-0.2,0-0.4-0.4-0.4-0.9l0,0c0-0.5,0.2-0.9,0.4-0.9h12.2c0.2,0,0.4,0.4,0.4,0.9l0,0
			C341.1,41.3,340.9,41.7,340.7,41.7z"/>
		<path class="st1" d="M344.8,59.7h-26.4c-0.2,0-0.4-0.4-0.4-0.9l0,0c0-0.5,0.2-0.9,0.4-0.9h26.4c0.2,0,0.4,0.4,0.4,0.9l0,0
			C345.2,59.3,345,59.7,344.8,59.7z"/>
		<path class="st22" d="M316.2,63.4h-4.6c-0.2,0-0.4-0.4-0.4-0.9l0,0c0-0.5,0.2-0.9,0.4-0.9h4.6c0.2,0,0.4,0.4,0.4,0.9l0,0
			C316.6,63,316.4,63.4,316.2,63.4z"/>
		<path class="st1" d="M326.8,63.4h-8.4c-0.2,0-0.4-0.4-0.4-0.9l0,0c0-0.5,0.2-0.9,0.4-0.9h8.4c0.2,0,0.4,0.4,0.4,0.9l0,0
			C327.2,63,327,63.4,326.8,63.4z"/>
		<path class="st23" d="M340.7,63.4h-12.2c-0.2,0-0.4-0.4-0.4-0.9l0,0c0-0.5,0.2-0.9,0.4-0.9h12.2c0.2,0,0.4,0.4,0.4,0.9l0,0
			C341.1,63,340.9,63.4,340.7,63.4z"/>
		<path class="st23" d="M351.3,45.4h-33c-0.2,0-0.4-0.4-0.4-0.9l0,0c0-0.5,0.2-0.9,0.4-0.9h33c0.2,0,0.4,0.4,0.4,0.9l0,0
			C351.8,45,351.6,45.4,351.3,45.4z"/>
		<path class="st22" d="M344.7,49.1h-8.2c-0.1,0-0.2-0.1-0.2-0.2v-1.3c0-0.1,0.1-0.2,0.2-0.2h8.2c0.1,0,0.2,0.1,0.2,0.2v1.3
			C344.9,49,344.8,49.1,344.7,49.1z"/>
		<path class="st1" d="M329.3,49.1h-11c-0.2,0-0.4-0.4-0.4-0.9l0,0c0-0.5,0.2-0.9,0.4-0.9h11c0.2,0,0.4,0.4,0.4,0.9l0,0
			C329.7,48.7,329.5,49.1,329.3,49.1z"/>
		<path class="st22" d="M335.1,49.1h-4.3c-0.2,0-0.4-0.4-0.4-0.9l0,0c0-0.5,0.2-0.9,0.4-0.9h4.3c0.2,0,0.4,0.4,0.4,0.9l0,0
			C335.6,48.7,335.4,49.1,335.1,49.1z"/>
		<path class="st1" d="M316.2,52.6h-4.6c-0.2,0-0.4-0.4-0.4-0.9l0,0c0-0.5,0.2-0.9,0.4-0.9h4.6c0.2,0,0.4,0.4,0.4,0.9l0,0
			C316.6,52.2,316.4,52.6,316.2,52.6z"/>
		<path class="st1" d="M351.3,52.6h-33c-0.2,0-0.4-0.4-0.4-0.9l0,0c0-0.5,0.2-0.9,0.4-0.9h33c0.2,0,0.4,0.4,0.4,0.9l0,0
			C351.8,52.2,351.6,52.6,351.3,52.6z"/>
		<path class="st1" d="M316.2,66.8h-4.6c-0.2,0-0.4-0.4-0.4-0.9l0,0c0-0.5,0.2-0.9,0.4-0.9h4.6c0.2,0,0.4,0.4,0.4,0.9l0,0
			C316.6,66.4,316.4,66.8,316.2,66.8z"/>
		<path class="st1" d="M347.9,66.8h-11.4c-0.2,0-0.3-0.1-0.3-0.3v-1.2c0-0.2,0.1-0.3,0.3-0.3h11.4c0.2,0,0.3,0.1,0.3,0.3v1.2
			C348.2,66.7,348.1,66.8,347.9,66.8z"/>
		<path class="st1" d="M329.3,66.8h-11c-0.2,0-0.4-0.4-0.4-0.9l0,0c0-0.5,0.2-0.9,0.4-0.9h11c0.2,0,0.4,0.4,0.4,0.9l0,0
			C329.7,66.4,329.5,66.8,329.3,66.8z"/>
		<path class="st1" d="M335.1,66.8h-4.3c-0.2,0-0.4-0.4-0.4-0.9l0,0c0-0.5,0.2-0.9,0.4-0.9h4.3c0.2,0,0.4,0.4,0.4,0.9l0,0
			C335.6,66.4,335.4,66.8,335.1,66.8z"/>
		<path class="st24" d="M316.2,70.4h-4.6c-0.2,0-0.4-0.4-0.4-0.9l0,0c0-0.5,0.2-0.9,0.4-0.9h4.6c0.2,0,0.4,0.4,0.4,0.9l0,0
			C316.6,70,316.4,70.4,316.2,70.4z"/>
		<path class="st22" d="M324.1,70.4h-5.7c-0.2,0-0.4-0.4-0.4-0.9l0,0c0-0.5,0.2-0.9,0.4-0.9h5.7c0.2,0,0.4,0.4,0.4,0.9l0,0
			C324.5,70,324.3,70.4,324.1,70.4z"/>
		<path class="st22" d="M311.5,56.3c-0.2,0-0.4-0.4-0.4-0.9l0,0c0-0.5,0.2-0.9,0.4-0.9h4.6c0.2,0,0.4,0.4,0.4,0.9l0,0
			c0,0.5-0.2,0.9-0.4,0.9"/>
		<path class="st1" d="M349.5,56.3h-12.9c-0.2,0-0.3-0.1-0.3-0.3v-1.2c0-0.2,0.1-0.3,0.3-0.3h12.9c0.2,0,0.3,0.1,0.3,0.3v1.2
			C349.8,56.2,349.6,56.3,349.5,56.3z"/>
		<path class="st24" d="M329.3,56.3h-11c-0.2,0-0.4-0.4-0.4-0.9l0,0c0-0.5,0.2-0.9,0.4-0.9h11c0.2,0,0.4,0.4,0.4,0.9l0,0
			C329.7,55.9,329.5,56.3,329.3,56.3z"/>
		<path class="st24" d="M335.1,56.3h-4.3c-0.2,0-0.4-0.4-0.4-0.9l0,0c0-0.5,0.2-0.9,0.4-0.9h4.3c0.2,0,0.4,0.4,0.4,0.9l0,0
			C335.6,55.9,335.4,56.3,335.1,56.3z"/>
		<path class="st1" d="M344.8,74.2h-26.4c-0.2,0-0.4-0.4-0.4-0.9l0,0c0-0.5,0.2-0.9,0.4-0.9h26.4c0.2,0,0.4,0.4,0.4,0.9l0,0
			C345.2,73.8,345,74.2,344.8,74.2z"/>
		<path class="st1" d="M326.8,77.9h-8.4c-0.2,0-0.4-0.4-0.4-0.9l0,0c0-0.5,0.2-0.9,0.4-0.9h8.4c0.2,0,0.4,0.4,0.4,0.9l0,0
			C327.2,77.5,327,77.9,326.8,77.9z"/>
		<path class="st1" d="M340.7,77.9h-12.2c-0.2,0-0.4-0.4-0.4-0.9l0,0c0-0.5,0.2-0.9,0.4-0.9h12.2c0.2,0,0.4,0.4,0.4,0.9l0,0
			C341.1,77.5,340.9,77.9,340.7,77.9z"/>
		<path class="st1" d="M344.8,95.8h-26.4c-0.2,0-0.4-0.4-0.4-0.9l0,0c0-0.5,0.2-0.9,0.4-0.9h26.4c0.2,0,0.4,0.4,0.4,0.9l0,0
			C345.2,95.4,345,95.8,344.8,95.8z"/>
		<path class="st23" d="M316.2,99.5h-4.6c-0.2,0-0.4-0.4-0.4-0.9l0,0c0-0.5,0.2-0.9,0.4-0.9h4.6c0.2,0,0.4,0.4,0.4,0.9l0,0
			C316.6,99.1,316.4,99.5,316.2,99.5z"/>
		<path class="st22" d="M326.8,99.5h-8.4c-0.2,0-0.4-0.4-0.4-0.9l0,0c0-0.5,0.2-0.9,0.4-0.9h8.4c0.2,0,0.4,0.4,0.4,0.9l0,0
			C327.2,99.1,327,99.5,326.8,99.5z"/>
		<path class="st1" d="M340.7,99.5h-12.2c-0.2,0-0.4-0.4-0.4-0.9l0,0c0-0.5,0.2-0.9,0.4-0.9h12.2c0.2,0,0.4,0.4,0.4,0.9l0,0
			C341.1,99.1,340.9,99.5,340.7,99.5z"/>
		<path class="st23" d="M316.2,81.6h-4.6c-0.2,0-0.4-0.4-0.4-0.9l0,0c0-0.5,0.2-0.9,0.4-0.9h4.6c0.2,0,0.4,0.4,0.4,0.9l0,0
			C316.6,81.2,316.4,81.6,316.2,81.6z"/>
		<path class="st23" d="M342.2,81.6h-24.1c-0.1,0-0.3-0.1-0.3-0.3V80c0-0.1,0.1-0.3,0.3-0.3h24.1c0.1,0,0.3,0.1,0.3,0.3v1.3
			C342.5,81.4,342.4,81.6,342.2,81.6z"/>
		<path class="st1" d="M316.2,85.2h-4.6c-0.2,0-0.4-0.4-0.4-0.9l0,0c0-0.5,0.2-0.9,0.4-0.9h4.6c0.2,0,0.4,0.4,0.4,0.9l0,0
			C316.6,84.8,316.4,85.2,316.2,85.2z"/>
		<path class="st1" d="M329.3,85.2h-11c-0.2,0-0.4-0.4-0.4-0.9l0,0c0-0.5,0.2-0.9,0.4-0.9h11c0.2,0,0.4,0.4,0.4,0.9l0,0
			C329.7,84.8,329.5,85.2,329.3,85.2z"/>
		<path class="st1" d="M335.1,85.2h-4.3c-0.2,0-0.4-0.4-0.4-0.9l0,0c0-0.5,0.2-0.9,0.4-0.9h4.3c0.2,0,0.4,0.4,0.4,0.9l0,0
			C335.6,84.8,335.4,85.2,335.1,85.2z"/>
		<path class="st1" d="M316.2,88.8h-4.6c-0.2,0-0.4-0.4-0.4-0.9l0,0c0-0.5,0.2-0.9,0.4-0.9h4.6c0.2,0,0.4,0.4,0.4,0.9l0,0
			C316.6,88.4,316.4,88.8,316.2,88.8z"/>
		<path class="st1" d="M348.6,88.8h-30.4c-0.2,0-0.3-0.1-0.3-0.3v-1.2c0-0.2,0.1-0.3,0.3-0.3h30.4c0.2,0,0.3,0.1,0.3,0.3v1.2
			C348.9,88.7,348.7,88.8,348.6,88.8z"/>
		<path class="st1" d="M316.2,103h-4.6c-0.2,0-0.4-0.4-0.4-0.9l0,0c0-0.5,0.2-0.9,0.4-0.9h4.6c0.2,0,0.4,0.4,0.4,0.9l0,0
			C316.6,102.6,316.4,103,316.2,103z"/>
		<path class="st1" d="M351.3,103h-14.6c-0.2,0-0.4-0.4-0.4-0.9l0,0c0-0.5,0.2-0.9,0.4-0.9h14.6c0.2,0,0.4,0.4,0.4,0.9l0,0
			C351.8,102.6,351.6,103,351.3,103z"/>
		<path class="st1" d="M329.3,103h-11c-0.2,0-0.4-0.4-0.4-0.9l0,0c0-0.5,0.2-0.9,0.4-0.9h11c0.2,0,0.4,0.4,0.4,0.9l0,0
			C329.7,102.6,329.5,103,329.3,103z"/>
		<path class="st1" d="M335.1,103h-4.3c-0.2,0-0.4-0.4-0.4-0.9l0,0c0-0.5,0.2-0.9,0.4-0.9h4.3c0.2,0,0.4,0.4,0.4,0.9l0,0
			C335.6,102.6,335.4,103,335.1,103z"/>
		<path class="st24" d="M338.1,106.5h-20c-0.1,0-0.2-0.1-0.2-0.2V105c0-0.1,0.1-0.2,0.2-0.2h20c0.1,0,0.2,0.1,0.2,0.2v1.3
			C338.4,106.4,338.2,106.5,338.1,106.5z"/>
		<path class="st23" d="M350.2,92.5h-13.7c-0.2,0-0.3-0.1-0.3-0.3V91c0-0.2,0.1-0.3,0.3-0.3h13.7c0.2,0,0.3,0.1,0.3,0.3v1.2
			C350.5,92.4,350.4,92.5,350.2,92.5z"/>
		<path class="st24" d="M329.3,92.5h-11c-0.2,0-0.4-0.4-0.4-0.9l0,0c0-0.5,0.2-0.9,0.4-0.9h11c0.2,0,0.4,0.4,0.4,0.9l0,0
			C329.7,92.1,329.5,92.5,329.3,92.5z"/>
		<path class="st24" d="M335.1,92.5h-4.3c-0.2,0-0.4-0.4-0.4-0.9l0,0c0-0.5,0.2-0.9,0.4-0.9h4.3c0.2,0,0.4,0.4,0.4,0.9l0,0
			C335.6,92.1,335.4,92.5,335.1,92.5z"/>
	</g>
	<g>
		<circle class="st25" cx="364.5" cy="27.8" r="14.6"/>
		<g>
			<g>
				<path class="st9" d="M363.4,26.4l-5.8,2.1l5.8,2.1v2.2l-8.3-3.2v-2.3l8.3-3.2V26.4z"/>
			</g>
			<g>
				<path class="st9" d="M365.3,24.3l8.3,3.2v2.3l-8.3,3.2v-2.2l5.8-2.1l-5.8-2.1V24.3z"/>
			</g>
		</g>
	</g>
	<path class="st2" d="M351.9,309h-95.2c-1.9,0-3.5-1.6-3.5-3.5V128.7c0-1.9,1.6-3.5,3.5-3.5h95.2c1.9,0,3.5,1.6,3.5,3.5v176.8
		C355.4,307.4,353.8,309,351.9,309z"/>
	<rect x="264.1" y="138.2" class="st7" width="81.8" height="142.3"/>
	<g>
		<path class="st1" d="M339.5,230.9h-70.4c-0.7,0-1.3-0.6-1.3-1.3v-85.5c0-0.7,0.6-1.3,1.3-1.3h70.4c0.7,0,1.3,0.6,1.3,1.3v85.5
			C340.8,230.4,340.2,230.9,339.5,230.9z"/>
		<path class="st2" d="M296.1,221.2h-9.4c-2.2,0-4-1.8-4-4l0,0c0-2.2,1.8-4,4-4h9.4c2.2,0,4,1.8,4,4l0,0
			C300.1,219.4,298.3,221.2,296.1,221.2z"/>
		<path class="st8" d="M323.3,221.2h-9.4c-2.2,0-4-1.8-4-4l0,0c0-2.2,1.8-4,4-4h9.4c2.2,0,4,1.8,4,4l0,0
			C327.3,219.4,325.5,221.2,323.3,221.2z"/>
		<rect x="279.3" y="173.7" class="st9" width="50.8" height="8"/>
		<rect x="279.3" y="187.2" class="st9" width="50.8" height="8"/>
		<rect x="290.2" y="200.3" class="st16" width="29.2" height="1.8"/>
	</g>
	<path class="st8" d="M388.2,166.6h-91.3c-5.6,0-10.2-4.6-10.2-10.2l0,0c0-5.6,4.6-10.2,10.2-10.2h91.3c5.6,0,10.2,4.6,10.2,10.2
		l0,0C398.4,162,393.8,166.6,388.2,166.6z"/>
	<g>
		<path class="st8" d="M188.2,0H88.8c-8.1,0-14.6,6.5-14.6,14.6c0,8.1,6.5,14.6,14.6,14.6h7.3l7.1,7.1l7.1-7.1h78
			c8.1,0,14.6-6.5,14.6-14.6C202.8,6.5,196.3,0,188.2,0z"/>
		<path class="st20" d="M159.8,19.3H94.4c-0.9,0-1.6-0.7-1.6-1.6l0,0c0-0.9,0.7-1.6,1.6-1.6h65.4c0.9,0,1.6,0.7,1.6,1.6l0,0
			C161.4,18.5,160.7,19.3,159.8,19.3z"/>
		<path class="st20" d="M139.3,10.3h-45c-0.9,0-1.6-0.7-1.6-1.6l0,0c0-0.9,0.7-1.6,1.6-1.6h45c0.9,0,1.6,0.7,1.6,1.6l0,0
			C141,9.6,140.2,10.3,139.3,10.3z"/>
	</g>
	<g>
		<path class="st13" d="M371.1,200.1c0,0-1.2,3.6-1.9,5.8c0,0,6-0.1,8.1-2.9l-2.2-5.3L371.1,200.1z"/>
		<g>
			<polygon class="st26" points="370.2,299.6 370.8,301.9 374,302.1 373.4,299.3 			"/>
			<path class="st14" d="M370.8,301.9c0,0-5.5,2.9-5.5,3.1c0,0.2,9.3-0.8,9.3-0.8l-0.6-2.1L370.8,301.9z"/>
		</g>
		<g>
			<polygon class="st26" points="398.1,295.1 399.3,297 402.5,296 400.8,293.6 			"/>
			<path class="st14" d="M399.3,297c0,0-4.1,4.7-4,4.8c0.1,0.2,8.4-4.1,8.4-4.1l-1.3-1.7L399.3,297z"/>
		</g>
		<path class="st17" d="M364.1,239.6c0,0-9.5,30.9,5.6,60.6h4.4c0,0-8.9-33.6,2.2-60.9L364.1,239.6z"/>
		<path class="st17" d="M372.3,240.7c0,0,1.5,32.2,25.6,55.2l4.2-1.5c0,0-19.7-28.7-18.4-58.1L372.3,240.7z"/>
		<g>
			<path class="st26" d="M368,168.1l0-1.9c0-0.1,0-0.2,0-0.2l-0.4-1.4l-1.1,0.3l-1.1-1c-0.5-0.4-1.2-0.3-1.5,0.3
				c-0.3,0.7-0.7,1.7-0.9,2.4c0,0.3,0,0.6,0.2,0.8l1.7,1.9c0.2,0.3,0.6,0.4,1,0.3l1.3-0.4C367.7,168.8,368,168.5,368,168.1z"/>
			<path class="st27" d="M384.3,209.8c0,0-12.3-13.2-13.1-18.2c-0.8-4.9-2.6-23.3-2.6-23.3l-3.8,0.7c0,0-1.3,26.3-0.2,29.3
				c1.2,3,8.6,18.5,13.4,19.9C382.8,219.7,386.2,214.9,384.3,209.8z"/>
			<path class="st26" d="M367.2,188c0,0-2.8,9.3-1,11.6c1.8,2.3,8.2,0.2,10.8-3.5c2.5-3.7,3-12.1-1.3-12.8
				C371.4,182.5,368.2,184.3,367.2,188z"/>
			<path class="st27" d="M383.9,242.1c0,0,2.5-26.7,2.5-33.9c0-0.3,0-0.6,0-1c-1.9-4.7-6.5-4.6-8.3-4.2c-1.9,0.4-9.1,2.7-9,3l0,0
				c-2.5,1.8-4.4,4-4.6,4.5c0,0-6.7,13.9-0.8,30.6L383.9,242.1z"/>
			<path class="st26" d="M348.5,169.4l-0.3-1.9c0-0.1,0-0.2-0.1-0.2l-0.6-1.3l-1,0.5l-1.3-0.8c-0.5-0.3-1.2-0.1-1.4,0.5
				c-0.2,0.8-0.4,1.8-0.4,2.5c0,0.3,0.1,0.6,0.4,0.7l2,1.5c0.3,0.2,0.7,0.3,1,0.1l1.3-0.6C348.4,170.2,348.6,169.8,348.5,169.4z"/>
			<path class="st27" d="M371.9,207.7c0,0-14.5-10.8-16.1-15.6c-1.7-4.7-6.7-22.5-6.7-22.5l-3.6,1.4c0,0,3.3,26.1,5,28.9
				c1.7,2.8,11.7,16.7,16.7,17.2C372.2,217.7,374.7,212.4,371.9,207.7z"/>
			<path class="st14" d="M377.5,183.2c0,0-7.4-3.2-10.9,3.3c-1.9,4.1,4.1,0.2,5.2,1.5c1.1,1.3-1.5,3.9-0.7,4.8
				c0.7,0.9,2-1.7,2.8-0.2c0.7,1.5-1.1,1.7-2.4,3.3c-1.3,1.7,1.1,4.1-0.7,5.6c-1.9,1.5-7,2.6-3.9,10.6c3.2,8-5.2,10-1.7,20.9
				c3.5,10.9,27.4,17.1,31.9,4.1c4.4-13-10.4-16.1-9.5-21.9c0.9-5.7,4.3-7.2-0.2-13c-4.4-5.7-7.2-9.1-5.9-12.8
				C382.7,185.8,379.1,183.2,377.5,183.2z"/>
		</g>
	</g>
	<path class="st28" d="M384.2,138.2c-8.8,0-15.9,7.1-15.9,15.9s7.1,15.9,15.9,15.9c8.8,0,15.9-7.1,15.9-15.9S393,138.2,384.2,138.2z
		 M376.1,152.9c0-1.1,0.9-1.9,1.9-1.9c1.1,0,1.9,0.9,1.9,1.9c0,1.1-0.9,1.9-1.9,1.9C377,154.8,376.1,154,376.1,152.9z M384.2,162.8
		c-2.6,0-4.7-1.9-5-4.4h10C388.8,160.9,386.7,162.8,384.2,162.8z M390.3,154.8c-1.1,0-1.9-0.9-1.9-1.9c0-1.1,0.9-1.9,1.9-1.9
		c1.1,0,1.9,0.9,1.9,1.9C392.2,154,391.3,154.8,390.3,154.8z"/>
	<polygon class="st9" points="113.7,252.8 112.9,250.9 135.4,238.3 163.7,238.8 194.5,225.8 218,225.8 243.2,216.4 243.4,216.4 
		263.5,219 274.8,212.3 275.7,214.2 263.8,221.1 263.6,221.1 243.4,218.5 218.2,227.9 194.7,227.9 164.1,240.9 163.9,240.9 
		135.8,240.4 	"/>
	<g>
		<path class="st14" d="M206.6,202.7c0,0,25,40.6,21.9,68.8l17,0.4l-7.3-4.2l2.1-0.4c0,0-6.3-43.7-12.2-59.3
			c-6.2-16.3-8-10.2-8-10.2L206.6,202.7z"/>
		<path class="st14" d="M197.5,200.2c0,0,1.4,28.2-0.7,39c-2.1,10.8-8.3,32-8.3,32l16,0.3l-4.2-3l-2.7-1.6c0,0,11.4-30.6,12.4-45.2
			c1-14.6,2.8-23,2.8-23L197.5,200.2z"/>
		<g>
			<polyline class="st13" points="230.3,116.8 232.9,115 234.1,110.7 232.8,110.4 232,112 232.8,104.6 231.5,104.8 230.1,112 
				228.6,115.4 230,116.3 			"/>
			<polygon class="st13" points="245.7,124.6 246.1,121.4 249.9,117.6 250.8,118.8 249.4,120.4 256.7,118.7 256.7,120.2 
				249.9,122.8 248.5,125.3 			"/>
			<g>
				<g>
					<g>
						<path class="st2" d="M228.5,114.2c0,0-29.7,36-33.2,43.3c0,0-1.4,2.6-1.4,10.1c0,7.5,2.6,35.2,2.6,35.2l30.3,1.7
							c0,0-9.8-33.7-10.1-34.6c-0.3-0.9-5.2-6.1-9.8-7.2l25.4-45.8L228.5,114.2z"/>
						<g>
							<path class="st13" d="M209.7,159.2c0,0,1.3,3.7,2,6c0,0-6.2-0.1-8.4-3l2.3-5.5L209.7,159.2z"/>
							<g>
								<path class="st13" d="M214.4,147.5c0,0,1.8,10.6,0,13.1c-1.8,2.4-8.1-1.7-10.7-5.6c-2.6-3.9-3.1-12.6,1.3-13.3
									C209.4,140.9,213.3,143.6,214.4,147.5z"/>
							</g>
						</g>
						<path class="st2" d="M211.6,167.2c0,0,23.8-15,25.7-18.1c1.9-3.1,7.3-25.9,7.3-25.9l4.6,1.2c0,0-2.7,25.5-3.5,28.2
							c-0.8,2.7-24.2,27.7-29.6,27.7C210.8,180.2,208.9,173.3,211.6,167.2z"/>
					</g>
				</g>
			</g>
		</g>
		<path class="st14" d="M212.7,145.1c0,0,1.2-4.2-1.4-6.3c-2.6-2.1-7.1-1.7-7.8-1c0,1.2,2.8,1.9,2.1,2.6c-0.7,0.7-4.3,0-5.2,3.7
			c-0.9,3.7,0.3,4.3,0.3,4.3s-1.9,2.3,0.3,5.4c2.3,3.1,7.4,5.7,8.6,5.4c1.3-0.3,0.6-5.2,0.6-5.2s-3-0.3-3.1-2.3
			c-0.2-1.9,1.4-2.1,2.1-1.4c0.7,0.7,0.9,2.3,1.4,1.9c0.5-0.3-0.2-4-0.2-4S212.3,146.6,212.7,145.1z"/>
	</g>
	<circle class="st17" cx="138.2" cy="238.8" r="3.3"/>
	<circle class="st27" cx="264.1" cy="220.4" r="3.3"/>
</g>
<circle class="st7" cx="305.1" cy="295.3" r="8.8"/>
<path class="st1" d="M339.5,274.9h-70.4c-0.7,0-1.3-0.6-1.3-1.3v-35.4c0-0.7,0.6-1.3,1.3-1.3h70.4c0.7,0,1.3,0.6,1.3,1.3v35.4
	C340.8,274.3,340.2,274.9,339.5,274.9z"/>
</svg>
